# xmcd CD database file
#
# Track frame offsets:
#	150
#	19549
#	39142
#	60716
#	86054
#	108006
#	132717
#	170213
#	194496
#	222084
#	244619
#	266075
#	290149
#	310933
#	335952
#	355157
#
# Disc length: 4789 seconds
#
# Revision: 0
# Processed by: cddbd v1.5.2PL0 Copyright (c) Steve Scherf et al.
# Submitted via: CDex 1.75
#
DISCID=f912b310
DTITLE=Erroll Garner - Nightconcert
DYEAR=2018
DGENRE=Jazz
TTITLE0=Where or When 
TTITLE1=Easy to Love
TTITLE2=On Green Dolphin Street 
TTITLE3=Theme from "A New Kind of Love" (All Yours) 
TTITLE4=Night and Day
TTITLE5=Cheek to Cheek 
TTITLE6=My Funny Valentine 
TTITLE7=Gypsy in My Soul 
TTITLE8=That Amsterdam Swing 
TTITLE9=Over the Rainbow 
TTITLE10=What is This Thing Called Love
TTITLE11=Laura 
TTITLE12=When Your Lover Has Gone 
TTITLE13=No More Shadows 
TTITLE14='S Wonderful 
TTITLE15=Thanks for the Memory 
EXTD=YEAR: 2018
EXTT0=
EXTT1=
EXTT2=
EXTT3=
EXTT4=
EXTT5=
EXTT6=
EXTT7=
EXTT8=
EXTT9=
EXTT10=
EXTT11=
EXTT12=
EXTT13=
EXTT14=
EXTT15=
PLAYORDER=
